<svg width="30" height="28" viewBox="0 0 30 28" fill="none" xmlns="http://www.w3.org/2000/svg">
<path d="M26.35 8.56208C26.134 8.23689 25.8247 7.96589 25.4523 7.77553C25.0799 7.58516 24.657 7.48192 24.225 7.47587H8.225L7.5 5.02104C7.42675 4.78408 7.26333 4.57564 7.03635 4.42968C6.80937 4.28373 6.5322 4.20885 6.25 4.21725H3.75C3.41848 4.21725 3.10054 4.33169 2.86612 4.53539C2.6317 4.7391 2.5 5.01538 2.5 5.30346C2.5 5.59154 2.6317 5.86782 2.86612 6.07152C3.10054 6.27523 3.41848 6.38966 3.75 6.38966H5.3L8.75 17.5341C8.82325 17.7711 8.98667 17.9796 9.21365 18.1255C9.44063 18.2715 9.7178 18.3463 10 18.3379H21.25C21.4808 18.3373 21.707 18.2812 21.9033 18.1757C22.0997 18.0703 22.2586 17.9197 22.3625 17.7405L26.4625 10.615C26.6402 10.2913 26.7229 9.93447 26.7033 9.57625C26.6837 9.21804 26.5623 8.86961 26.35 8.56208Z" fill="white"/>
<path d="M9.375 23.769C10.4105 23.769 11.25 23.0395 11.25 22.1397C11.25 21.2398 10.4105 20.5103 9.375 20.5103C8.33947 20.5103 7.5 21.2398 7.5 22.1397C7.5 23.0395 8.33947 23.769 9.375 23.769Z" fill="white"/>
<path d="M21.875 23.769C22.9105 23.769 23.75 23.0395 23.75 22.1397C23.75 21.2398 22.9105 20.5103 21.875 20.5103C20.8395 20.5103 20 21.2398 20 22.1397C20 23.0395 20.8395 23.769 21.875 23.769Z" fill="white"/>
</svg>
