<svg width="24" height="26" viewBox="0 0 24 26" fill="none" xmlns="http://www.w3.org/2000/svg">
<path fill-rule="evenodd" clip-rule="evenodd" d="M10.3225 1.19126C10.8433 0.930759 11.4177 0.795135 12 0.795135C12.5823 0.795135 13.1567 0.930759 13.6775 1.19126L22.5588 5.63251C22.7664 5.73625 22.941 5.89573 23.0631 6.0931C23.1851 6.29047 23.2499 6.51793 23.25 6.75001V7.22751L12 12.8525L0.75 7.22751V6.75001C0.750124 6.51793 0.814854 6.29047 0.93694 6.0931C1.05903 5.89573 1.23365 5.73625 1.44125 5.63251L10.3225 1.19126ZM0.75 10.0225V17.705C0.750024 18.4013 0.943917 19.0839 1.30996 19.6762C1.676 20.2685 2.19974 20.7473 2.8225 21.0588L10.75 25.0225V15.0225L0.75 10.0225ZM13.25 25.0225L21.1775 21.06C21.8006 20.7483 22.3246 20.2692 22.6907 19.6764C23.0568 19.0836 23.2504 18.4005 23.25 17.7038V10.0225L13.25 15.0225V25.0225Z" fill="white"/>
</svg>
