<svg width="22" height="22" viewBox="0 0 22 22" fill="none" xmlns="http://www.w3.org/2000/svg">
<path d="M3.46707 5.29176V3.20843C3.46709 2.60518 3.66082 2.01482 4.02488 1.50863C4.38895 1.00243 4.90778 0.602032 5.51876 0.355762C6.12973 0.109492 6.80673 0.0278772 7.46803 0.12077C8.12934 0.213663 8.74667 0.477093 9.24553 0.879261C9.74439 0.477093 10.3617 0.213663 11.023 0.12077C11.6843 0.0278772 12.3613 0.109492 12.9723 0.355762C13.5833 0.602032 14.1021 1.00243 14.4662 1.50863C14.8302 2.01482 15.024 2.60518 15.024 3.20843V5.29176H16.7575C17.2173 5.29176 17.6582 5.45638 17.9833 5.74941C18.3084 6.04243 18.4911 6.43986 18.4911 6.85426V11.3522L17.3712 10.3584C17.184 10.1918 16.9783 10.047 16.7575 9.92405V6.85426H12.1463V9.46051H11.5581C11.157 9.46051 10.7722 9.52301 10.4128 9.63551V6.85426H1.73354V16.7501C1.73354 17.0921 1.80827 17.4307 1.95347 17.7467C2.09866 18.0626 2.31148 18.3497 2.57977 18.5915C2.84806 18.8333 3.16657 19.0252 3.51711 19.156C3.86764 19.2869 4.24335 19.3543 4.62276 19.3543H10.7479L12.4514 20.9168H4.62276C3.39673 20.9168 2.22091 20.4778 1.35398 19.6964C0.48704 18.915 0 17.8552 0 16.7501V6.85426C0 6.43986 0.18264 6.04243 0.507741 5.74941C0.832842 5.45638 1.27377 5.29176 1.73354 5.29176H3.46707ZM8.66768 5.29176V3.20843C8.66768 2.79403 8.48504 2.3966 8.15994 2.10357C7.83484 1.81055 7.39391 1.64593 6.93415 1.64593C6.47438 1.64593 6.03345 1.81055 5.70835 2.10357C5.38325 2.3966 5.20061 2.79403 5.20061 3.20843V5.29176H8.66768ZM10.4012 5.29176H13.2904V3.20843C13.2905 2.8868 13.1804 2.57299 12.9752 2.30985C12.77 2.0467 12.4798 1.84704 12.144 1.73811C11.8083 1.62919 11.4434 1.6163 11.0992 1.70122C10.755 1.78614 10.4483 1.96472 10.2209 2.21259C10.3377 2.52509 10.4012 2.86051 10.4012 3.20843V5.29176ZM9.90658 17.0959L14.5305 21.3376C15.4331 22.1668 16.9158 22.1709 17.8265 21.3501L21.2855 18.2293C21.5006 18.0355 21.671 17.8053 21.7868 17.5518C21.9027 17.2984 21.9616 17.0268 21.9604 16.7527C21.9591 16.4786 21.8975 16.2075 21.7793 15.9549C21.6611 15.7024 21.4886 15.4734 21.2717 15.2813L16.5611 11.1011C16.1266 10.7156 15.5412 10.4997 14.9315 10.5001L11.5592 10.5022C10.9466 10.5016 10.3588 10.7203 9.92497 11.1102C9.49113 11.5 9.24675 12.0292 9.24553 12.5813V15.6407C9.24553 16.1845 9.48245 16.7074 9.90658 17.0959ZM13.8637 13.6251C13.8637 13.7619 13.8339 13.8974 13.7759 14.0238C13.7179 14.1502 13.6328 14.265 13.5256 14.3618C13.4183 14.4586 13.291 14.5354 13.1508 14.5878C13.0106 14.6402 12.8603 14.6672 12.7086 14.6673C12.402 14.6674 12.108 14.5578 11.8912 14.3626C11.6743 14.1673 11.5524 13.9024 11.5523 13.6261C11.5521 13.3499 11.6737 13.0849 11.8904 12.8894C12.107 12.694 12.4009 12.5841 12.7074 12.5839C13.0139 12.5838 13.3079 12.6934 13.5248 12.8887C13.7416 13.0839 13.8635 13.3488 13.8637 13.6251Z" fill="#023047"/>
</svg>
