<svg width="31" height="27" viewBox="0 0 31 27" fill="none" xmlns="http://www.w3.org/2000/svg">
<path d="M26.6502 7.83232C26.4339 7.49972 26.1241 7.22255 25.751 7.02784C25.3779 6.83314 24.9544 6.72754 24.5216 6.72136H8.4942L7.76796 4.21058C7.69458 3.96821 7.53088 3.75502 7.30351 3.60574C7.07614 3.45646 6.79851 3.37988 6.51582 3.38847H4.01154C3.67945 3.38847 3.36096 3.50552 3.12614 3.71386C2.89132 3.92221 2.7594 4.20479 2.7594 4.49943C2.7594 4.79408 2.89132 5.07666 3.12614 5.285C3.36096 5.49335 3.67945 5.6104 4.01154 5.6104H5.56419L9.0201 17.0089C9.09347 17.2512 9.25718 17.4644 9.48455 17.6137C9.71192 17.763 9.98955 17.8396 10.2722 17.831H21.5415C21.7727 17.8304 21.9992 17.7729 22.1959 17.6651C22.3926 17.5572 22.5518 17.4032 22.6559 17.22L26.7629 9.93204C26.9409 9.60099 27.0238 9.23599 27.0041 8.86961C26.9845 8.50323 26.8629 8.14687 26.6502 7.83232Z" fill="white"/>
<path d="M9.64618 23.3859C10.6835 23.3859 11.5244 22.6398 11.5244 21.7194C11.5244 20.7991 10.6835 20.053 9.64618 20.053C8.60888 20.053 7.76797 20.7991 7.76797 21.7194C7.76797 22.6398 8.60888 23.3859 9.64618 23.3859Z" fill="white"/>
<path d="M22.1676 23.3859C23.2049 23.3859 24.0458 22.6398 24.0458 21.7194C24.0458 20.7991 23.2049 20.053 22.1676 20.053C21.1302 20.053 20.2893 20.7991 20.2893 21.7194C20.2893 22.6398 21.1302 23.3859 22.1676 23.3859Z" fill="white"/>
</svg>
