<svg width="23" height="23" viewBox="0 0 23 23" fill="none" xmlns="http://www.w3.org/2000/svg">
<mask id="path-1-inside-1_504:3916" fill="white">
<path d="M21.0983 9.72325L12.1773 1.51598C11.8873 1.24916 11.5054 1.10477 11.1114 1.11297C10.7174 1.12118 10.3419 1.28134 10.0632 1.56L1.85855 9.76471L1.4375 10.1857V22.2812H9.34375V14.7343H13.6562V22.2812H21.5625V10.1504L21.0983 9.72325ZM11.1423 2.55017C11.155 2.55017 11.1472 2.55291 11.1417 2.55825C11.1361 2.55291 11.1297 2.55017 11.1423 2.55017ZM20.125 20.8437H15.0938V14.7343C15.0938 14.353 14.9423 13.9874 14.6727 13.7178C14.4031 13.4482 14.0375 13.2968 13.6562 13.2968H9.34375C8.9625 13.2968 8.59687 13.4482 8.32728 13.7178C8.0577 13.9874 7.90625 14.353 7.90625 14.7343V20.8437H2.875V10.7812L11.1423 2.57645L11.1434 2.57487L20.125 10.7812V20.8437Z"/>
</mask>
<path d="M21.0983 9.72325L12.1773 1.51598C11.8873 1.24916 11.5054 1.10477 11.1114 1.11297C10.7174 1.12118 10.3419 1.28134 10.0632 1.56L1.85855 9.76471L1.4375 10.1857V22.2812H9.34375V14.7343H13.6562V22.2812H21.5625V10.1504L21.0983 9.72325ZM11.1423 2.55017C11.155 2.55017 11.1472 2.55291 11.1417 2.55825C11.1361 2.55291 11.1297 2.55017 11.1423 2.55017ZM20.125 20.8437H15.0938V14.7343C15.0938 14.353 14.9423 13.9874 14.6727 13.7178C14.4031 13.4482 14.0375 13.2968 13.6562 13.2968H9.34375C8.9625 13.2968 8.59687 13.4482 8.32728 13.7178C8.0577 13.9874 7.90625 14.353 7.90625 14.7343V20.8437H2.875V10.7812L11.1423 2.57645L11.1434 2.57487L20.125 10.7812V20.8437Z" fill="#C211A7"/>
<path d="M21.0983 9.72325L23.1295 7.51553L23.1294 7.51545L21.0983 9.72325ZM12.1773 1.51598L10.1461 3.72375L10.1462 3.72377L12.1773 1.51598ZM10.0632 1.56L12.1845 3.68131L12.1846 3.6813L10.0632 1.56ZM1.85855 9.76471L3.97976 11.8861L3.97988 11.886L1.85855 9.76471ZM1.4375 10.1857L-0.683705 8.06428L-1.5625 8.94298V10.1857H1.4375ZM1.4375 22.2812H-1.5625V25.2812H1.4375V22.2812ZM9.34375 22.2812V25.2812H12.3438V22.2812H9.34375ZM9.34375 14.7343V11.7343H6.34375V14.7343H9.34375ZM13.6562 14.7343H16.6562V11.7343H13.6562V14.7343ZM13.6562 22.2812H10.6562V25.2812H13.6562V22.2812ZM21.5625 22.2812V25.2812H24.5625V22.2812H21.5625ZM21.5625 10.1504H24.5625V8.83396L23.5937 7.94264L21.5625 10.1504ZM11.1417 2.55825L9.07322 4.73108L11.1757 6.73261L13.2453 4.69718L11.1417 2.55825ZM20.125 20.8437V23.8437H23.125V20.8437H20.125ZM15.0938 20.8437H12.0938V23.8437H15.0938V20.8437ZM7.90625 20.8437V23.8437H10.9062V20.8437H7.90625ZM2.875 20.8437H-0.125V23.8437H2.875V20.8437ZM2.875 10.7812L0.761759 8.65179L-0.125 9.53183V10.7812H2.875ZM11.1423 2.57645L13.2556 4.70582L13.4567 4.50624L13.6169 4.27254L11.1423 2.57645ZM11.1434 2.57487L13.167 0.360117L10.6197 -1.96732L8.66888 0.878784L11.1434 2.57487ZM20.125 10.7812H23.125V9.45854L22.1486 8.5664L20.125 10.7812ZM23.1294 7.51545L14.2085 -0.691818L10.1462 3.72377L19.0671 11.931L23.1294 7.51545ZM14.2085 -0.691798C13.3489 -1.48268 12.2168 -1.9107 11.049 -1.88638L11.1739 4.11232C10.794 4.12023 10.4258 3.98101 10.1461 3.72375L14.2085 -0.691798ZM11.049 -1.88638C9.88111 -1.86206 8.76785 -1.38729 7.94188 -0.561304L12.1846 3.6813C11.9159 3.94998 11.5538 4.10441 11.1739 4.11232L11.049 -1.88638ZM7.94189 -0.561316L-0.262774 7.6434L3.97988 11.886L12.1845 3.68131L7.94189 -0.561316ZM-0.262653 7.64328L-0.683705 8.06428L3.55871 12.3072L3.97976 11.8861L-0.262653 7.64328ZM-1.5625 10.1857V22.2812H4.4375V10.1857H-1.5625ZM1.4375 25.2812H9.34375V19.2812H1.4375V25.2812ZM12.3438 22.2812V14.7343H6.34375V22.2812H12.3438ZM9.34375 17.7343H13.6562V11.7343H9.34375V17.7343ZM10.6562 14.7343V22.2812H16.6562V14.7343H10.6562ZM13.6562 25.2812H21.5625V19.2812H13.6562V25.2812ZM24.5625 22.2812V10.1504H18.5625V22.2812H24.5625ZM23.5937 7.94264L23.1295 7.51553L19.067 11.931L19.5313 12.3581L23.5937 7.94264ZM11.1423 5.55017C11.1003 5.55017 11.0067 5.54943 10.8879 5.53916C10.8117 5.53257 10.5108 5.50715 10.1491 5.37936C9.93066 5.3022 8.63355 4.82569 8.24237 3.29337C7.874 1.8504 8.68241 0.837126 8.77878 0.712945C8.98247 0.450471 9.18593 0.283302 9.21554 0.258369C9.27042 0.212164 9.32276 0.172187 9.30627 0.184986C9.3061 0.185118 9.30344 0.18718 9.3002 0.189706C9.29676 0.192392 9.2916 0.196428 9.28536 0.201353C9.27306 0.211069 9.25437 0.225984 9.23192 0.244551C9.18869 0.280306 9.11888 0.339956 9.03818 0.419329L13.2453 4.69718C13.166 4.77521 13.0976 4.83361 13.0558 4.86819C13.034 4.88617 13.0161 4.90052 13.0044 4.90969C12.9986 4.91434 12.9937 4.91811 12.9906 4.92053C12.9891 4.92176 12.9878 4.92276 12.9869 4.9234C12.9865 4.92373 12.9862 4.92399 12.986 4.92417C12.9857 4.92434 12.9856 4.92447 12.9856 4.92448C12.9704 4.93627 13.0239 4.89537 13.0798 4.84832C13.1104 4.82254 13.3147 4.65462 13.5189 4.39146C13.6158 4.26661 14.4244 3.25274 14.0559 1.80926C13.6646 0.276436 12.367 -0.200505 12.1476 -0.278005C11.7849 -0.406134 11.4826 -0.43181 11.4044 -0.438568C11.2836 -0.449007 11.1876 -0.449834 11.1423 -0.449834V5.55017ZM13.2103 0.385425C13.1216 0.301043 13.0075 0.207298 13.0698 0.259735C13.0752 0.264289 13.149 0.325579 13.2351 0.409956C13.2861 0.459812 13.5504 0.713689 13.7711 1.11972C14 1.541 14.4722 2.71685 13.76 4.00391C13.1804 5.05116 12.2239 5.35371 12.0325 5.41364C11.724 5.51021 11.4715 5.53294 11.3876 5.53993C11.2751 5.5493 11.1862 5.55017 11.1423 5.55017V-0.449834C11.0953 -0.449834 11.0038 -0.448884 10.8893 -0.439345C10.8033 -0.432177 10.5493 -0.409192 10.2397 -0.31228C10.0472 -0.252009 9.09005 0.0509595 8.51022 1.09872C7.79769 2.38629 8.26997 3.56273 8.49928 3.98469C8.72031 4.3914 8.98533 4.64603 9.0371 4.69673C9.12413 4.78195 9.19899 4.84417 9.2056 4.84973C9.27028 4.90419 9.15904 4.81279 9.07322 4.73108L13.2103 0.385425ZM20.125 17.8437H15.0938V23.8437H20.125V17.8437ZM18.0938 20.8437V14.7343H12.0938V20.8437H18.0938ZM18.0938 14.7343C18.0938 13.5574 17.6262 12.4287 16.794 11.5965L12.5514 15.8391C12.2584 15.5461 12.0938 15.1487 12.0938 14.7343H18.0938ZM16.794 11.5965C15.9618 10.7643 14.8332 10.2968 13.6562 10.2968V16.2968C13.2418 16.2968 12.8444 16.1322 12.5514 15.8391L16.794 11.5965ZM13.6562 10.2968H9.34375V16.2968H13.6562V10.2968ZM9.34375 10.2968C8.16685 10.2968 7.03815 10.7643 6.20596 11.5965L10.4486 15.8391C10.1556 16.1322 9.75816 16.2968 9.34375 16.2968V10.2968ZM6.20596 11.5965C5.37377 12.4287 4.90625 13.5574 4.90625 14.7343H10.9062C10.9062 15.1487 10.7416 15.5461 10.4486 15.8391L6.20596 11.5965ZM4.90625 14.7343V20.8437H10.9062V14.7343H4.90625ZM7.90625 17.8437H2.875V23.8437H7.90625V17.8437ZM5.875 20.8437V10.7812H-0.125V20.8437H5.875ZM4.98824 12.9105L13.2556 4.70582L9.02909 0.447076L0.761759 8.65179L4.98824 12.9105ZM13.6169 4.27254L13.6179 4.27096L8.66888 0.878784L8.66781 0.880357L13.6169 4.27254ZM9.11983 4.78963L18.1014 12.9959L22.1486 8.5664L13.167 0.360117L9.11983 4.78963ZM17.125 10.7812V20.8437H23.125V10.7812H17.125Z" fill="#C211A7" mask="url(#path-1-inside-1_504:3916)"/>
</svg>
