<svg width="32" height="32" viewBox="0 0 32 32" fill="none" xmlns="http://www.w3.org/2000/svg">
<path d="M26.666 10.6665H5.33268V7.99984H26.666V10.6665ZM23.9994 2.6665H7.99935V5.33317H23.9994V2.6665ZM29.3327 15.9998V26.6665C29.3327 27.3738 29.0517 28.052 28.5516 28.5521C28.0515 29.0522 27.3733 29.3332 26.666 29.3332H5.33268C4.62609 29.3311 3.94904 29.0494 3.4494 28.5498C2.94976 28.0502 2.66813 27.3731 2.66602 26.6665V15.9998C2.66813 15.2932 2.94976 14.6162 3.4494 14.1166C3.94904 13.6169 4.62609 13.3353 5.33268 13.3332H26.666C27.3726 13.3353 28.0497 13.6169 28.5493 14.1166C29.049 14.6162 29.3306 15.2932 29.3327 15.9998ZM18.5687 22.7225L21.666 20.0745L17.5874 19.7332L15.9994 15.9998L14.4114 19.7332L10.3327 20.0745L13.43 22.7225L12.4967 26.6665L15.9994 24.5705L19.502 26.6665L18.5687 22.7225Z" fill="white"/>
</svg>
