<svg width="28" height="28" viewBox="0 0 29 29" fill="none" xmlns="http://www.w3.org/2000/svg">
<path d="M1.20898 1.2085V13.2918H27.7923V1.2085H1.20898ZM15.709 8.4585H4.83398V6.04183H15.709V8.4585ZM19.334 8.4585C19.095 8.4585 18.8614 8.38763 18.6627 8.25486C18.464 8.12208 18.3091 7.93337 18.2176 7.71257C18.1262 7.49178 18.1022 7.24882 18.1489 7.01443C18.1955 6.78004 18.3106 6.56473 18.4796 6.39574C18.6486 6.22675 18.8639 6.11167 19.0982 6.06505C19.3326 6.01842 19.5756 6.04235 19.7964 6.13381C20.0172 6.22526 20.2059 6.38014 20.3387 6.57885C20.4715 6.77756 20.5423 7.01118 20.5423 7.25016C20.5423 7.57063 20.415 7.87798 20.1884 8.10458C19.9618 8.33119 19.6545 8.4585 19.334 8.4585ZM22.959 8.4585C22.72 8.4585 22.4864 8.38763 22.2877 8.25486C22.089 8.12208 21.9341 7.93337 21.8426 7.71257C21.7512 7.49178 21.7272 7.24882 21.7739 7.01443C21.8205 6.78004 21.9356 6.56473 22.1046 6.39574C22.2736 6.22675 22.4889 6.11167 22.7232 6.06505C22.9576 6.01842 23.2006 6.04235 23.4214 6.13381C23.6422 6.22526 23.8309 6.38014 23.9637 6.57885C24.0964 6.77756 24.1673 7.01118 24.1673 7.25016C24.1673 7.57063 24.04 7.87798 23.8134 8.10458C23.5868 8.33119 23.2795 8.4585 22.959 8.4585Z" fill="white"/>
<path d="M27.4161 22.1969L28.7936 20.9886L27.5853 18.8982L25.8332 19.4903C25.4452 19.1633 25.0038 18.9057 24.5282 18.729L24.1657 16.9165H21.749L21.3865 18.7169C20.9109 18.8936 20.4694 19.1512 20.0815 19.4782L18.3294 18.8861L17.1211 20.9765L18.4986 22.1848C18.4019 22.6877 18.4019 23.2044 18.4986 23.7073L17.1211 24.9157L18.3294 27.0061L20.0815 26.414C20.4694 26.741 20.9109 26.9986 21.3865 27.1753L21.749 28.9998H24.1657L24.5282 27.1994C25.0038 27.0227 25.4453 26.7652 25.8332 26.4382L27.5853 27.0303L28.7936 24.9398L27.4161 23.7315C27.5128 23.2245 27.5128 22.7039 27.4161 22.1969ZM22.9573 25.3748C22.4794 25.3748 22.0121 25.2331 21.6147 24.9676C21.2173 24.702 20.9075 24.3246 20.7246 23.883C20.5417 23.4414 20.4939 22.9555 20.5871 22.4867C20.6804 22.0179 20.9105 21.5873 21.2485 21.2493C21.5865 20.9114 22.0171 20.6812 22.4859 20.5879C22.9547 20.4947 23.4406 20.5425 23.8822 20.7255C24.3238 20.9084 24.7012 21.2181 24.9667 21.6155C25.2323 22.013 25.374 22.4802 25.374 22.9582C25.3721 23.5985 25.1169 24.2121 24.6641 24.6649C24.2113 25.1177 23.5977 25.3729 22.9573 25.3748Z" fill="white"/>
<path d="M14.5007 22.9585H4.83398V20.5418H14.8559C15.4631 18.5176 16.8052 16.7936 18.6187 15.7085H1.20898V27.7918H16.0232C15.0309 26.3755 14.4993 24.6878 14.5007 22.9585Z" fill="white"/>
</svg>
