<svg width="25" height="20" viewBox="0 0 25 20" fill="none" xmlns="http://www.w3.org/2000/svg">
<path d="M24.35 4.56031C24.134 4.23512 23.8247 3.96412 23.4523 3.77376C23.0799 3.58339 22.657 3.48015 22.225 3.4741H6.225L5.5 1.01927C5.42675 0.782305 5.26333 0.573868 5.03635 0.427912C4.80937 0.281956 4.5322 0.207081 4.25 0.215481H1.75C1.41848 0.215481 1.10054 0.32992 0.866116 0.533623C0.631696 0.737327 0.5 1.01361 0.5 1.30169C0.5 1.58977 0.631696 1.86605 0.866116 2.06975C1.10054 2.27346 1.41848 2.38789 1.75 2.38789H3.3L6.75 13.5324C6.82325 13.7693 6.98667 13.9778 7.21365 14.1237C7.44063 14.2697 7.7178 14.3446 8 14.3362H19.25C19.4808 14.3356 19.707 14.2794 19.9033 14.174C20.0997 14.0685 20.2586 13.9179 20.3625 13.7388L24.4625 6.61324C24.6402 6.28957 24.7229 5.9327 24.7033 5.57448C24.6837 5.21627 24.5623 4.86784 24.35 4.56031Z" fill="#131E3D"/>
<path d="M7.375 19.7664C8.41053 19.7664 9.25 19.037 9.25 18.1371C9.25 17.2373 8.41053 16.5078 7.375 16.5078C6.33947 16.5078 5.5 17.2373 5.5 18.1371C5.5 19.037 6.33947 19.7664 7.375 19.7664Z" fill="white"/>
<path d="M19.875 19.7664C20.9105 19.7664 21.75 19.037 21.75 18.1371C21.75 17.2373 20.9105 16.5078 19.875 16.5078C18.8395 16.5078 18 17.2373 18 18.1371C18 19.037 18.8395 19.7664 19.875 19.7664Z" fill="white"/>
</svg>
