<svg width="19" height="20" viewBox="0 0 19 20" fill="none" xmlns="http://www.w3.org/2000/svg">
<path d="M14.667 6.66667C14.667 5.34059 14.1402 4.06882 13.2025 3.13114C12.2648 2.19346 10.9931 1.66667 9.66699 1.66667C8.34091 1.66667 7.06914 2.19346 6.13146 3.13114C5.19378 4.06882 4.66699 5.34059 4.66699 6.66667C4.66699 12.5 2.16699 14.1667 2.16699 14.1667H17.167C17.167 14.1667 14.667 12.5 14.667 6.66667Z" stroke="#C211A7" stroke-width="2" stroke-linecap="round" stroke-linejoin="round"/>
<path d="M11.1084 17.5C10.9619 17.7526 10.7516 17.9622 10.4986 18.1079C10.2456 18.2537 9.95875 18.3304 9.66676 18.3304C9.37478 18.3304 9.08792 18.2537 8.83491 18.1079C8.5819 17.9622 8.37161 17.7526 8.2251 17.5" stroke="#C211A7" stroke-width="2" stroke-linecap="round" stroke-linejoin="round"/>
<path d="M1.3335 6.66667C1.3335 4.83334 1.91683 3.08334 3.00016 1.66667" stroke="#C211A7" stroke-width="2" stroke-linecap="round" stroke-linejoin="round"/>
<path d="M18.0002 6.66667C18.0002 4.86359 17.4153 3.10914 16.3335 1.66667" stroke="#C211A7" stroke-width="2" stroke-linecap="round" stroke-linejoin="round"/>
</svg>
