<svg width="23" height="22" viewBox="0 0 23 22" fill="none" xmlns="http://www.w3.org/2000/svg">
<path d="M19.75 1.43481C20.1147 1.43481 20.4644 1.58598 20.7223 1.85506C20.9801 2.12414 21.125 2.48909 21.125 2.86963V14.3481C21.125 14.7287 20.9801 15.0936 20.7223 15.3627C20.4644 15.6318 20.1147 15.783 19.75 15.783H16.3125C15.8856 15.783 15.4645 15.8867 15.0827 16.0859C14.7008 16.2851 14.3687 16.5744 14.1125 16.9308L11.5 20.5652L8.8875 16.9308C8.63135 16.5744 8.29919 16.2851 7.91734 16.0859C7.53548 15.8867 7.11442 15.783 6.6875 15.783H3.25C2.88533 15.783 2.53559 15.6318 2.27773 15.3627C2.01987 15.0936 1.875 14.7287 1.875 14.3481V2.86963C1.875 2.48909 2.01987 2.12414 2.27773 1.85506C2.53559 1.58598 2.88533 1.43481 3.25 1.43481H19.75ZM3.25 0C2.52065 0 1.82118 0.302335 1.30546 0.840494C0.789731 1.37865 0.5 2.10855 0.5 2.86963L0.5 14.3481C0.5 15.1092 0.789731 15.8391 1.30546 16.3773C1.82118 16.9154 2.52065 17.2178 3.25 17.2178H6.6875C6.90096 17.2178 7.11149 17.2696 7.30242 17.3692C7.49334 17.4689 7.65942 17.6135 7.7875 17.7917L10.4 21.4261C10.5281 21.6043 10.6942 21.7489 10.8851 21.8485C11.076 21.9481 11.2865 22 11.5 22C11.7135 22 11.924 21.9481 12.1149 21.8485C12.3058 21.7489 12.4719 21.6043 12.6 21.4261L15.2125 17.7917C15.3406 17.6135 15.5067 17.4689 15.6976 17.3692C15.8885 17.2696 16.099 17.2178 16.3125 17.2178H19.75C20.4793 17.2178 21.1788 16.9154 21.6945 16.3773C22.2103 15.8391 22.5 15.1092 22.5 14.3481V2.86963C22.5 2.10855 22.2103 1.37865 21.6945 0.840494C21.1788 0.302335 20.4793 0 19.75 0L3.25 0Z" fill="#F8F8FA"/>
<path d="M4.625 5.02202C4.625 4.83175 4.69743 4.64927 4.82636 4.51473C4.9553 4.3802 5.13016 4.30461 5.3125 4.30461H17.6875C17.8698 4.30461 18.0447 4.3802 18.1736 4.51473C18.3026 4.64927 18.375 4.83175 18.375 5.02202C18.375 5.21229 18.3026 5.39476 18.1736 5.5293C18.0447 5.66384 17.8698 5.73943 17.6875 5.73943H5.3125C5.13016 5.73943 4.9553 5.66384 4.82636 5.5293C4.69743 5.39476 4.625 5.21229 4.625 5.02202ZM4.625 8.60905C4.625 8.41878 4.69743 8.23631 4.82636 8.10177C4.9553 7.96723 5.13016 7.89165 5.3125 7.89165H17.6875C17.8698 7.89165 18.0447 7.96723 18.1736 8.10177C18.3026 8.23631 18.375 8.41878 18.375 8.60905C18.375 8.79932 18.3026 8.9818 18.1736 9.11634C18.0447 9.25088 17.8698 9.32646 17.6875 9.32646H5.3125C5.13016 9.32646 4.9553 9.25088 4.82636 9.11634C4.69743 8.9818 4.625 8.79932 4.625 8.60905ZM4.625 12.1961C4.625 12.0058 4.69743 11.8233 4.82636 11.6888C4.9553 11.5543 5.13016 11.4787 5.3125 11.4787H12.1875C12.3698 11.4787 12.5447 11.5543 12.6736 11.6888C12.8026 11.8233 12.875 12.0058 12.875 12.1961C12.875 12.3864 12.8026 12.5688 12.6736 12.7034C12.5447 12.8379 12.3698 12.9135 12.1875 12.9135H5.3125C5.13016 12.9135 4.9553 12.8379 4.82636 12.7034C4.69743 12.5688 4.625 12.3864 4.625 12.1961Z" fill="#F8F8FA"/>
</svg>
