<svg width="14" height="15" viewBox="0 0 14 15" fill="none" xmlns="http://www.w3.org/2000/svg">
<path d="M7.00001 0.846588C5.35957 0.84827 3.78688 1.41528 2.62692 2.42325C1.46696 3.43122 0.814442 4.79783 0.812507 6.22331C0.810542 7.38822 1.24843 8.52151 2.05901 9.44935C2.05901 9.44935 2.22776 9.64242 2.25532 9.67028L7.00001 14.5328L11.7469 9.66784C11.7717 9.64193 11.941 9.44935 11.941 9.44935L11.9416 9.44788C12.7517 8.52045 13.1894 7.38768 13.1875 6.22331C13.1856 4.79783 12.5331 3.43122 11.3731 2.42325C10.2131 1.41528 8.64044 0.84827 7.00001 0.846588ZM7.00001 8.17848C6.555 8.17848 6.11999 8.06382 5.74997 7.84898C5.37996 7.63414 5.09158 7.32879 4.92128 6.97152C4.75098 6.61426 4.70642 6.22114 4.79324 5.84188C4.88006 5.46261 5.09435 5.11423 5.40902 4.8408C5.72369 4.56736 6.1246 4.38115 6.56105 4.30571C6.99751 4.23027 7.44991 4.26899 7.86105 4.41697C8.27218 4.56495 8.62358 4.81555 8.87081 5.13708C9.11805 5.4586 9.25001 5.83662 9.25001 6.22331C9.24926 6.74166 9.01197 7.23859 8.59018 7.60511C8.16838 7.97164 7.59652 8.17784 7.00001 8.17848Z" fill="#D9D9D9"/>
</svg>
