<svg width="26" height="23" viewBox="0 0 26 23" fill="none" xmlns="http://www.w3.org/2000/svg">
<path d="M18.6181 0.487305C16.1996 0.487305 14.1331 2.21115 12.9977 3.39961C11.8623 2.21115 9.80037 0.487305 7.38306 0.487305C3.21652 0.487305 0.307678 3.39154 0.307678 7.54884C0.307678 12.1296 3.92037 15.0904 7.41537 17.9542C9.06537 19.3077 10.7731 20.7062 12.0827 22.2569C12.3031 22.5165 12.6261 22.6665 12.9654 22.6665H13.0323C13.3727 22.6665 13.6946 22.5154 13.9138 22.2569C15.2258 20.7062 16.9323 19.3065 18.5835 17.9542C22.0773 15.0915 25.6923 12.1308 25.6923 7.54884C25.6923 3.39154 22.7834 0.487305 18.6181 0.487305Z" fill="white"/>
</svg>
