<svg width="21" height="19" viewBox="0 0 21 19" fill="none" xmlns="http://www.w3.org/2000/svg">
<path fill-rule="evenodd" clip-rule="evenodd" d="M15.0052 11.9137L20.6094 16.7836C20.8064 16.9549 20.917 17.1871 20.9169 17.4293C20.9168 17.6714 20.806 17.9036 20.6089 18.0748C20.4117 18.246 20.1445 18.3421 19.8658 18.342C19.5871 18.3419 19.3199 18.2456 19.1229 18.0744L13.5188 13.2045C11.8435 14.3321 9.73675 14.8627 7.62722 14.6884C5.51769 14.5141 3.56379 13.6481 2.16301 12.2664C0.762228 10.8847 0.0197892 9.09125 0.0867281 7.25079C0.153667 5.41034 1.02496 3.66116 2.52335 2.35911C4.02174 1.05706 6.03467 0.299944 8.15266 0.241777C10.2706 0.183609 12.3346 0.828763 13.9246 2.04599C15.5146 3.26322 16.5113 4.9611 16.7118 6.79421C16.9124 8.62732 16.3018 10.458 15.0042 11.9137H15.0052ZM8.41667 12.9103C10.0743 12.9103 11.664 12.3381 12.8361 11.3196C14.0082 10.3011 14.6667 8.91971 14.6667 7.47931C14.6667 6.03891 14.0082 4.6575 12.8361 3.63899C11.664 2.62047 10.0743 2.04827 8.41667 2.04827C6.75907 2.04827 5.16936 2.62047 3.99726 3.63899C2.82515 4.6575 2.16667 6.03891 2.16667 7.47931C2.16667 8.91971 2.82515 10.3011 3.99726 11.3196C5.16936 12.3381 6.75907 12.9103 8.41667 12.9103Z" fill="#ffffff"/>
</svg>
