<svg width="28" height="28" viewBox="0 0 30 30" fill="none" xmlns="http://www.w3.org/2000/svg">
<path d="M27.9375 0.9375H2.0625C1.44023 0.9375 0.9375 1.44023 0.9375 2.0625V27.9375C0.9375 28.5598 1.44023 29.0625 2.0625 29.0625H27.9375C28.5598 29.0625 29.0625 28.5598 29.0625 27.9375V2.0625C29.0625 1.44023 28.5598 0.9375 27.9375 0.9375ZM10.3594 21.4688C9.58242 21.4688 8.95312 20.8395 8.95312 20.0625C8.95312 19.2855 9.58242 18.6562 10.3594 18.6562C11.1363 18.6562 11.7656 19.2855 11.7656 20.0625C11.7656 20.8395 11.1363 21.4688 10.3594 21.4688ZM10.3594 16.4062C9.58242 16.4062 8.95312 15.777 8.95312 15C8.95312 14.223 9.58242 13.5938 10.3594 13.5938C11.1363 13.5938 11.7656 14.223 11.7656 15C11.7656 15.777 11.1363 16.4062 10.3594 16.4062ZM10.3594 11.3438C9.58242 11.3438 8.95312 10.7145 8.95312 9.9375C8.95312 9.16055 9.58242 8.53125 10.3594 8.53125C11.1363 8.53125 11.7656 9.16055 11.7656 9.9375C11.7656 10.7145 11.1363 11.3438 10.3594 11.3438ZM21.0469 20.9062C21.0469 21.0609 20.9203 21.1875 20.7656 21.1875H14.2969C14.1422 21.1875 14.0156 21.0609 14.0156 20.9062V19.2188C14.0156 19.0641 14.1422 18.9375 14.2969 18.9375H20.7656C20.9203 18.9375 21.0469 19.0641 21.0469 19.2188V20.9062ZM21.0469 15.8438C21.0469 15.9984 20.9203 16.125 20.7656 16.125H14.2969C14.1422 16.125 14.0156 15.9984 14.0156 15.8438V14.1562C14.0156 14.0016 14.1422 13.875 14.2969 13.875H20.7656C20.9203 13.875 21.0469 14.0016 21.0469 14.1562V15.8438ZM21.0469 10.7812C21.0469 10.9359 20.9203 11.0625 20.7656 11.0625H14.2969C14.1422 11.0625 14.0156 10.9359 14.0156 10.7812V9.09375C14.0156 8.93906 14.1422 8.8125 14.2969 8.8125H20.7656C20.9203 8.8125 21.0469 8.93906 21.0469 9.09375V10.7812Z" fill="white"/>
</svg>
