<svg width="28" height="28" viewBox="0 0 30 30" fill="none" xmlns="http://www.w3.org/2000/svg">
<path d="M15 30C12.9688 30 11.0254 29.6045 9.16992 28.8135C7.31445 28.0225 5.71777 26.958 4.37988 25.6201C3.04199 24.2822 1.97754 22.6855 1.18652 20.8301C0.395508 18.9746 0 17.0312 0 15C0 12.9688 0.395508 11.0254 1.18652 9.16992C1.97754 7.31445 3.04199 5.71777 4.37988 4.37988C5.71777 3.04199 7.31445 1.97754 9.16992 1.18652C11.0254 0.395508 12.9688 0 15 0C17.0312 0 18.9746 0.395508 20.8301 1.18652C22.6855 1.97754 24.2822 3.04199 25.6201 4.37988C26.958 5.71777 28.0225 7.31445 28.8135 9.16992C29.6045 11.0254 30 12.9688 30 15C30 17.0312 29.6045 18.9746 28.8135 20.8301C28.0225 22.6855 26.958 24.2822 25.6201 25.6201C24.2822 26.958 22.6855 28.0225 20.8301 28.8135C18.9746 29.6045 17.0312 30 15 30ZM15.0146 26.25C15.5322 26.25 15.9717 26.0693 16.333 25.708C16.6943 25.3467 16.875 24.9072 16.875 24.3896C16.875 23.8721 16.6943 23.4277 16.333 23.0566C15.9717 22.6855 15.5322 22.5 15.0146 22.5C14.4971 22.5 14.0527 22.6855 13.6816 23.0566C13.3105 23.4277 13.125 23.8721 13.125 24.3896C13.125 24.9072 13.3105 25.3467 13.6816 25.708C14.0527 26.0693 14.4971 26.25 15.0146 26.25ZM15 3.75C12.9297 3.75 11.1621 4.48242 9.69727 5.94727C8.23242 7.41211 7.5 9.17969 7.5 11.25C7.5 11.7773 7.68066 12.2217 8.04199 12.583C8.40332 12.9443 8.84277 13.125 9.36035 13.125C9.87793 13.125 10.3223 12.9443 10.6934 12.583C11.0645 12.2217 11.25 11.7773 11.25 11.25C11.25 10.2148 11.6162 9.33105 12.3486 8.59863C13.0811 7.86621 13.9648 7.5 15 7.5C16.0352 7.5 16.9189 7.86621 17.6514 8.59863C18.3838 9.33105 18.75 10.2148 18.75 11.25C18.75 12.2852 18.3838 13.1689 17.6514 13.9014C16.9189 14.6338 16.0352 15 15 15C14.4922 15 14.0527 15.3857 13.6816 16.1572C13.3105 16.9287 13.125 17.793 13.125 18.75C13.125 19.2773 13.3057 19.7217 13.667 20.083C14.0283 20.4443 14.4727 20.625 15 20.625C15.5273 20.625 15.9717 20.4443 16.333 20.083C16.6943 19.7217 16.875 19.2773 16.875 18.75V18.5156C18.5156 18.0859 19.8633 17.1973 20.918 15.8496C21.9727 14.502 22.5 12.9688 22.5 11.25C22.5 9.17969 21.7676 7.41211 20.3027 5.94727C18.8379 4.48242 17.0703 3.75 15 3.75Z" fill="white"/>
</svg>
