<svg width="28" height="28" viewBox="0 0 30 24" fill="none" xmlns="http://www.w3.org/2000/svg">
<path d="M27.444 0.444336H2.55512C2.08363 0.444336 1.63144 0.631637 1.29804 0.965035C0.964645 1.29843 0.777344 1.75062 0.777344 2.22211V21.7777C0.777344 22.2492 0.964645 22.7013 1.29804 23.0347C1.63144 23.3681 2.08363 23.5554 2.55512 23.5554H27.444C27.9155 23.5554 28.3677 23.3681 28.7011 23.0347C29.0345 22.7013 29.2218 22.2492 29.2218 21.7777V2.22211C29.2218 1.75062 29.0345 1.29843 28.7011 0.965035C28.3677 0.631637 27.9155 0.444336 27.444 0.444336ZM19.0529 19.0577L12.7418 9.65322L7.10623 17.9021L3.10623 14.3466L4.3329 12.9332L6.7329 15.0577L12.7418 6.27545L19.1329 15.7954L25.3551 7.55545L26.8662 8.69322L19.0529 19.0577Z" fill="white"/>
</svg>
