<svg width="21" height="19" viewBox="0 0 21 19" fill="none" xmlns="http://www.w3.org/2000/svg">
<path fill-rule="evenodd" clip-rule="evenodd" d="M15.0052 11.9139L20.6093 16.7837C20.8063 16.955 20.9169 17.1873 20.9168 17.4294C20.9167 17.6716 20.8059 17.9038 20.6088 18.0749C20.4117 18.2461 20.1444 18.3422 19.8657 18.3421C19.5871 18.342 19.3199 18.2458 19.1229 18.0745L13.5187 13.2046C11.8434 14.3322 9.73671 14.8628 7.62718 14.6885C5.51764 14.5143 3.56374 13.6482 2.16296 12.2665C0.762183 10.8849 0.0197434 9.09137 0.0866824 7.25092C0.153621 5.41046 1.02491 3.66129 2.5233 2.35924C4.02169 1.05719 6.03463 0.300066 8.15261 0.241899C10.2706 0.183731 12.3345 0.828885 13.9246 2.04612C15.5146 3.26335 16.5112 4.96122 16.7118 6.79433C16.9123 8.62744 16.3017 10.4581 15.0041 11.9139H15.0052ZM8.41663 12.9105C10.0742 12.9105 11.6639 12.3383 12.836 11.3198C14.0081 10.3012 14.6666 8.91983 14.6666 7.47943C14.6666 6.03903 14.0081 4.65762 12.836 3.63911C11.6639 2.62059 10.0742 2.04839 8.41663 2.04839C6.75902 2.04839 5.16931 2.62059 3.99721 3.63911C2.82511 4.65762 2.16663 6.03903 2.16663 7.47943C2.16663 8.91983 2.82511 10.3012 3.99721 11.3198C5.16931 12.3383 6.75902 12.9105 8.41663 12.9105Z" fill="#131E3D" fill-opacity="0.5"/>
</svg>
