<svg width="26" height="23" viewBox="0 0 26 23" fill="none" xmlns="http://www.w3.org/2000/svg">
<path d="M18.618 0.488281C16.1995 0.488281 14.133 2.21213 12.9976 3.40059C11.8622 2.21213 9.80031 0.488281 7.383 0.488281C3.21646 0.488281 0.307617 3.39251 0.307617 7.54982C0.307617 12.1306 3.92031 15.0914 7.41531 17.9552C9.06531 19.3087 10.773 20.7071 12.0826 22.2579C12.303 22.5175 12.6261 22.6675 12.9653 22.6675H13.0322C13.3726 22.6675 13.6945 22.5164 13.9138 22.2579C15.2257 20.7071 16.9322 19.3075 18.5834 17.9552C22.0772 15.0925 25.6922 12.1317 25.6922 7.54982C25.6922 3.39251 22.7834 0.488281 18.618 0.488281Z" fill="#131E3D"/>
</svg>
