<svg width="28" height="28" viewBox="0 0 29 29" fill="none" xmlns="http://www.w3.org/2000/svg">
<path d="M21.9993 17.9998H5.99935L0.666016 23.3332V1.99984C0.666016 1.64622 0.806491 1.30708 1.05654 1.05703C1.30659 0.80698 1.64573 0.666504 1.99935 0.666504H21.9993C22.353 0.666504 22.6921 0.80698 22.9422 1.05703C23.1922 1.30708 23.3327 1.64622 23.3327 1.99984V16.6665C23.3327 17.0201 23.1922 17.3593 22.9422 17.6093C22.6921 17.8594 22.353 17.9998 21.9993 17.9998ZM28.666 9.99984V28.6665L23.3327 23.3332H8.66602C8.31239 23.3332 7.97326 23.1927 7.72321 22.9426C7.47316 22.6926 7.33268 22.3535 7.33268 21.9998V20.6665H25.9993V8.6665H27.3327C27.6863 8.6665 28.0254 8.80698 28.2755 9.05703C28.5255 9.30708 28.666 9.64622 28.666 9.99984ZM8.91935 3.33317C7.75935 3.33317 6.82602 3.59984 6.10602 4.11984C5.41268 4.6665 5.06602 5.4265 5.07935 6.47984L5.09268 6.51984H7.66602C7.67935 6.11984 7.79935 5.81317 8.03935 5.59984C8.28625 5.3951 8.59868 5.28622 8.91935 5.29317C9.33268 5.29317 9.67935 5.4265 9.91935 5.6665C10.1593 5.91984 10.266 6.2665 10.266 6.6665C10.266 7.09317 10.1727 7.45317 9.95935 7.75984C9.77268 8.0665 9.49268 8.33317 9.14602 8.5465C8.46602 8.99984 7.99935 9.39984 7.74602 9.75984C7.47935 10.1065 7.33268 10.6665 7.33268 11.3332H9.99935C9.99935 10.9198 10.0527 10.5865 10.1727 10.3465C10.2927 10.1065 10.5194 9.8665 10.8527 9.65317C11.4527 9.33317 11.946 8.9465 12.3327 8.41317C12.7193 7.87984 12.9193 7.33317 12.9193 6.6665C12.9193 5.65317 12.5593 4.83984 11.8393 4.23984C11.1327 3.63984 10.1593 3.33317 8.91935 3.33317ZM7.33268 12.6665V15.3332H9.99935V12.6665H7.33268ZM15.3327 15.3332H17.9993V12.6665H15.3327V15.3332ZM15.3327 3.33317V11.3332H17.9993V3.33317H15.3327Z" fill="white"/>
</svg>
