<svg width="28" height="28" viewBox="0 0 32 24" fill="none" xmlns="http://www.w3.org/2000/svg">
<path d="M24.3833 1.7335C23.7833 0.883496 22.7833 0.333496 21.6667 0.333496H3.33333C1.5 0.333496 0 1.8335 0 3.66683V20.3335C0 21.2176 0.351189 22.0654 0.976311 22.6905C1.60143 23.3156 2.44928 23.6668 3.33333 23.6668H21.6667C22.7833 23.6668 23.7833 23.1002 24.3833 22.2502L31.6667 12.0002L24.3833 1.7335ZM9.08333 5.3835C10.3833 5.3835 11.45 6.45016 11.45 7.75016C11.45 9.05016 10.3833 10.1168 9.08333 10.1168C7.78333 10.1168 6.71667 9.05016 6.71667 7.75016C6.71667 6.45016 7.78333 5.3835 9.08333 5.3835ZM17.5833 18.6168C16.2833 18.6168 15.2167 17.5502 15.2167 16.2502C15.2167 14.9502 16.2833 13.8835 17.5833 13.8835C18.8833 13.8835 19.95 14.9502 19.95 16.2502C19.95 17.5502 18.8833 18.6168 17.5833 18.6168ZM8.66667 18.6668L6.66667 16.6668L18 5.3335L20 7.3335L8.66667 18.6668Z" fill="white"/>
</svg>
