<svg width="22" height="21" viewBox="0 0 22 21" fill="none" xmlns="http://www.w3.org/2000/svg">
<path d="M2.44444 21H19.5556C20.9037 21 22 20.0581 22 18.9V7.35C22 7.07152 21.8712 6.80445 21.642 6.60754C21.4128 6.41062 21.1019 6.3 20.7778 6.3H17.1111V5.25C17.1111 2.35515 14.3697 0 11 0C7.63033 0 4.88889 2.35515 4.88889 5.25V6.3H1.22222C0.898069 6.3 0.587192 6.41062 0.357981 6.60754C0.128769 6.80445 0 7.07152 0 7.35V18.9C0 20.0581 1.09633 21 2.44444 21ZM7.33333 5.25C7.33333 3.5133 8.97844 2.1 11 2.1C13.0216 2.1 14.6667 3.5133 14.6667 5.25V6.3H7.33333V5.25ZM2.44444 8.4H4.88889V10.5H7.33333V8.4H14.6667V10.5H17.1111V8.4H19.5556L19.558 18.9H2.44444V8.4Z" fill="#F8F8FA"/>
</svg>
