<svg width="28" height="28" viewBox="0 0 28 29" fill="none" xmlns="http://www.w3.org/2000/svg">
<path d="M26.4213 4.84193C26.4107 4.83109 24.2732 7.00267 20.0193 11.3675L17.0346 8.29984L23.3943 1.76341C20.0475 -0.306994 15.7479 0.224157 12.96 3.08949C11.8943 4.18416 11.1274 5.54757 10.7362 7.04299C10.345 8.53841 10.3432 10.1133 10.7311 11.6096L10.7943 11.8517L0.827539 22.0917C0.60957 22.3158 0.60957 22.6843 0.827539 22.9083L5.79863 28.0175C6.0166 28.2415 6.3752 28.2415 6.59316 28.0175L16.5529 17.7811L16.7885 17.8461C19.7311 18.6519 22.8916 17.8136 25.0854 15.5589C27.8768 12.6936 28.3936 8.27455 26.4213 4.84193Z" fill="white"/>
</svg>
