<svg width="24" height="24" viewBox="0 0 24 24" fill="none" xmlns="http://www.w3.org/2000/svg">
<path d="M11.9993 0.666504C13.5022 0.666504 14.9436 1.26353 16.0063 2.32623C17.069 3.38894 17.666 4.83028 17.666 6.33317C17.666 7.83606 17.069 9.2774 16.0063 10.3401C14.9436 11.4028 13.5022 11.9998 11.9993 11.9998C10.4965 11.9998 9.05512 11.4028 7.99241 10.3401C6.9297 9.2774 6.33268 7.83606 6.33268 6.33317C6.33268 4.83028 6.9297 3.38894 7.99241 2.32623C9.05512 1.26353 10.4965 0.666504 11.9993 0.666504ZM11.9993 14.8332C18.261 14.8332 23.3327 17.369 23.3327 20.4998V23.3332H0.666016V20.4998C0.666016 17.369 5.73768 14.8332 11.9993 14.8332Z" fill="white"/>
</svg>
