<svg width="28" height="28" viewBox="0 0 31 25" fill="none" xmlns="http://www.w3.org/2000/svg">
<path d="M22.4264 0.833496C23.2579 0.833394 24.0583 1.14893 24.6661 1.71633C25.2738 2.28373 25.6435 3.06068 25.7004 3.89016L25.7077 4.11475V20.521C25.7073 20.7032 25.7752 20.8789 25.898 21.0136C26.0208 21.1482 26.1895 21.2321 26.371 21.2485C26.5524 21.265 26.7335 21.2129 26.8785 21.1026C27.0235 20.9922 27.1219 20.8315 27.1544 20.6522L27.166 20.521V5.22891C27.9272 5.31402 28.6346 5.66271 29.1657 6.21458C29.6968 6.76644 30.0181 7.48671 30.0739 8.25058L30.0827 8.48975V19.4272C30.0828 20.6379 29.6196 21.8026 28.7882 22.6826C27.9567 23.5625 26.8201 24.091 25.6114 24.1595L25.3431 24.1668H5.6556C4.44498 24.1669 3.28022 23.7037 2.40026 22.8723C1.5203 22.0409 0.991847 20.9043 0.923307 19.6956L0.916016 19.4272V4.11475C0.915914 3.28331 1.23145 2.48284 1.79885 1.87511C2.36625 1.26737 3.1432 0.897695 3.97268 0.840788L4.19727 0.833496H22.4264ZM11.486 11.0418H6.38185C6.09177 11.0418 5.81357 11.1571 5.60845 11.3622C5.40333 11.5673 5.2881 11.8455 5.2881 12.1356V17.2397C5.2881 17.8435 5.7781 18.3335 6.38185 18.3335H11.486C11.7761 18.3335 12.0543 18.2183 12.2594 18.0131C12.4645 17.808 12.5798 17.5298 12.5798 17.2397V12.1356C12.5798 11.8455 12.4645 11.5673 12.2594 11.3622C12.0543 11.1571 11.7761 11.0418 11.486 11.0418ZM20.2418 16.146H16.5989L16.4502 16.1562C16.1757 16.194 15.9257 16.3345 15.7508 16.5495C15.5759 16.7645 15.4892 17.0378 15.5081 17.3143C15.5269 17.5908 15.6501 17.8498 15.8526 18.039C16.0551 18.2281 16.3218 18.3334 16.5989 18.3335H20.2418L20.3906 18.3233C20.6651 18.2855 20.9151 18.1449 21.09 17.93C21.2648 17.715 21.3516 17.4417 21.3327 17.1652C21.3138 16.8887 21.1907 16.6297 20.9882 16.4405C20.7857 16.2514 20.519 16.1461 20.2418 16.146ZM10.3923 13.2293V16.146H7.4756V13.2293H10.3923ZM20.2389 11.0418L16.596 11.0491L16.4473 11.0579C16.1701 11.093 15.9168 11.2328 15.7395 11.4487C15.5621 11.6646 15.4741 11.9402 15.4935 12.2189C15.5129 12.4977 15.6382 12.7584 15.8438 12.9476C16.0494 13.1369 16.3195 13.2403 16.5989 13.2366L20.2433 13.2293L20.3906 13.2191C20.6653 13.1813 20.9153 13.0406 21.0902 12.8255C21.2651 12.6104 21.3518 12.3369 21.3327 12.0603C21.3136 11.7837 21.1902 11.5247 20.9874 11.3356C20.7846 11.1466 20.5176 11.0415 20.2404 11.0418H20.2389ZM20.2404 5.9435H6.38185L6.2331 5.9537C5.95857 5.99148 5.70861 6.13205 5.53373 6.34702C5.35885 6.56199 5.27209 6.83532 5.29098 7.11179C5.30987 7.38827 5.433 7.64727 5.63549 7.83645C5.83798 8.02564 6.10473 8.13091 6.38185 8.131H20.2418L20.3906 8.12225C20.6675 8.08713 20.9205 7.94748 21.0978 7.73191C21.275 7.51634 21.3632 7.24115 21.3442 6.96269C21.3252 6.68423 21.2004 6.42358 20.9955 6.2341C20.7906 6.04462 20.5209 5.94066 20.2418 5.9435H20.2404Z" fill="white"/>
</svg>
