<svg width="28" height="28" viewBox="0 0 27 31" fill="none" xmlns="http://www.w3.org/2000/svg">
<path d="M25.0508 12.1999H26.7008V30.3499H0.300781V12.1999H1.95078V8.89991C1.95078 4.34591 5.64678 0.64991 10.2008 0.64991C11.3723 0.64991 12.4943 0.89741 13.5008 1.34291C14.5405 0.884419 15.6645 0.648369 16.8008 0.64991C21.3548 0.64991 25.0508 4.34591 25.0508 8.89991V12.1999ZM5.25078 8.89991V12.1999H8.55078V8.89991C8.55078 7.03541 9.19428 5.33591 10.2338 3.94991H10.2008C7.47828 3.94991 5.25078 6.17741 5.25078 8.89991ZM21.7508 12.1999V8.89991C21.7508 6.17741 19.5233 3.94991 16.8008 3.94991H16.7678C17.8527 5.37267 18.4437 7.11068 18.4508 8.89991V12.1999H21.7508ZM13.5008 5.23691C12.4943 6.14441 11.8508 7.44791 11.8508 8.89991V12.1999H15.1508V8.89991C15.1508 7.44791 14.5073 6.14441 13.5008 5.23691Z" fill="white"/>
</svg>
