<svg width="25" height="21" viewBox="0 0 25 21" fill="none" xmlns="http://www.w3.org/2000/svg">
<path d="M12.5417 20.9907C11.765 20.3237 10.8871 19.6299 9.95872 18.8917H9.94668C6.67738 16.303 2.97216 13.3739 1.3357 9.86398C0.798647 8.74688 0.51326 7.53183 0.500014 6.29812C0.49823 5.46085 0.669213 4.63169 1.00292 3.8593C1.33664 3.08691 1.82635 2.38687 2.4433 1.80029C3.06026 1.21371 3.79203 0.752415 4.59563 0.443485C5.39924 0.134555 6.25848 -0.0157795 7.12292 0.00130936C8.54459 0.00348386 9.93565 0.401368 11.1304 1.14756C11.6554 1.47753 12.1303 1.87666 12.5417 2.33346C12.9559 1.87869 13.4303 1.47989 13.9541 1.14756C15.1484 0.401221 16.5391 0.00331332 17.9604 0.00130936C18.8248 -0.0157795 19.6841 0.134555 20.4877 0.443485C21.2913 0.752415 22.0231 1.21371 22.64 1.80029C23.257 2.38687 23.7467 3.08691 24.0804 3.8593C24.4141 4.63169 24.5851 5.46085 24.5833 6.29812C24.571 7.53278 24.2861 8.7506 23.7476 9.86981C22.1111 13.3797 18.4071 16.3077 15.1378 18.8917L15.1258 18.9011C14.1962 19.6345 13.3195 20.3283 12.5429 21L12.5417 20.9907ZM7.12292 2.33346C6.00125 2.31987 4.91938 2.73557 4.11251 3.49021C3.72772 3.85621 3.42284 4.29339 3.21598 4.77575C3.00912 5.25812 2.9045 5.77583 2.90834 6.29812C2.92159 7.196 3.13232 8.08221 3.52487 8.89614C4.29738 10.4105 5.3397 11.7811 6.60392 12.9447C7.79725 14.1108 9.17 15.2396 10.3573 16.1888C10.686 16.4511 11.0208 16.7158 11.3556 16.9805L11.5663 17.1473C11.8878 17.4015 12.2201 17.665 12.5417 17.9239L12.5573 17.9099L12.5645 17.9041H12.5718L12.5826 17.8959H12.5946L12.6163 17.8784L12.6657 17.8399L12.6741 17.8329L12.6874 17.8236H12.6946L12.7054 17.8143L13.505 17.1788L13.7145 17.012C14.0529 16.745 14.3876 16.4803 14.7164 16.2179C15.9037 15.2687 17.2776 14.1411 18.471 12.9692C19.7354 11.8062 20.7778 10.436 21.55 8.92179C21.9498 8.10087 22.1641 7.20532 22.1762 6.29812C22.1785 5.77732 22.073 5.26135 21.866 4.78068C21.659 4.30001 21.3546 3.86439 20.9708 3.49954C20.1655 2.74149 19.0834 2.32236 17.9604 2.33346C17.2829 2.32788 16.6118 2.46122 15.9912 2.72469C15.3707 2.98817 14.8147 3.37582 14.3599 3.86219L12.5417 5.89116L10.7234 3.86219C10.2686 3.37582 9.71263 2.98817 9.09209 2.72469C8.47155 2.46122 7.80046 2.32788 7.12292 2.33346Z" fill="#F8F8FA"/>
</svg>
