<svg width="28" height="28" viewBox="0 0 26 26" fill="none" xmlns="http://www.w3.org/2000/svg">
<path d="M22.75 26H11.375C10.4779 26 9.71191 25.6829 9.07715 25.0488C8.44238 24.4146 8.125 23.6494 8.125 22.7532V21.1298C8.125 20.6732 8.28158 20.2885 8.59473 19.9756C8.90788 19.6628 9.28874 19.5063 9.7373 19.5063C10.1859 19.5063 10.571 19.6628 10.8926 19.9756C11.2142 20.2885 11.375 20.6689 11.375 21.1171C11.375 21.5652 11.5316 21.9499 11.8447 22.2712C12.1579 22.5925 12.543 22.7532 13 22.7532H19.5C19.9401 22.7532 20.321 22.5925 20.6426 22.2712C20.9642 21.9499 21.125 21.5694 21.125 21.1298V4.87024C21.125 4.43057 20.9642 4.05008 20.6426 3.72878C20.321 3.40748 19.9401 3.24683 19.5 3.24683H13C12.543 3.24683 12.1579 3.40748 11.8447 3.72878C11.5316 4.05008 11.375 4.4348 11.375 4.88293C11.375 5.33106 11.2142 5.71577 10.8926 6.03707C10.571 6.35837 10.1859 6.51902 9.7373 6.51902C9.28874 6.51902 8.90788 6.35837 8.59473 6.03707C8.28158 5.71577 8.125 5.32683 8.125 4.87024V3.24683C8.125 2.35057 8.44238 1.58537 9.07715 0.951219C9.71191 0.317073 10.4779 0 11.375 0H22.75C23.6471 0 24.4131 0.317073 25.0479 0.951219C25.6826 1.58537 26 2.35057 26 3.24683V22.7532C26 23.6494 25.6826 24.4146 25.0479 25.0488C24.4131 25.6829 23.6471 26 22.75 26ZM17.875 9.74049C18.3151 9.74049 18.696 9.90114 19.0176 10.2224C19.3392 10.5437 19.5 10.9242 19.5 11.3639V14.6361C19.5 15.0758 19.3392 15.4563 19.0176 15.7776C18.696 16.0989 18.3151 16.2595 17.875 16.2595H6.5V18.8215C6.5 19.0075 6.38574 19.1681 6.15723 19.3034C5.92871 19.4387 5.65788 19.4979 5.34473 19.481C5.03158 19.4641 4.7819 19.3626 4.5957 19.1766L0.457031 14.1034C0.152344 13.799 0 13.4312 0 13C0 12.5688 0.152344 12.201 0.457031 11.8966L4.5957 6.82341C4.7819 6.6374 5.03158 6.54016 5.34473 6.53171C5.65788 6.52325 5.92871 6.58667 6.15723 6.72195C6.38574 6.85724 6.5 7.02634 6.5 7.22927V9.74049H17.875Z" fill="white"/>
</svg>
