<svg width="28" height="28" viewBox="0 0 23 28" fill="none" xmlns="http://www.w3.org/2000/svg">
<path fill-rule="evenodd" clip-rule="evenodd" d="M0.666016 2.8C0.666016 2.05739 0.929408 1.3452 1.39825 0.820101C1.86709 0.294999 2.50297 0 3.16602 0L16.8443 0L22.3327 6.14693V25.2C22.3327 25.9426 22.0693 26.6548 21.6004 27.1799C21.1316 27.705 20.4957 28 19.8327 28H3.16602C2.50297 28 1.86709 27.705 1.39825 27.1799C0.929408 26.6548 0.666016 25.9426 0.666016 25.2V2.8ZM5.66602 7.46667H10.666V9.33333H5.66602V7.46667ZM17.3327 13.0667H5.66602V14.9333H17.3327V13.0667ZM17.3327 18.6667H12.3327V20.5333H17.3327V18.6667Z" fill="white"/>
</svg>
