<svg width="21" height="22" viewBox="0 0 21 22" fill="none" xmlns="http://www.w3.org/2000/svg">
<mask id="path-1-inside-1_504:1987" fill="white">
<path d="M20.0983 8.72325L11.1773 0.515975C10.8873 0.249163 10.5054 0.104768 10.1114 0.112972C9.71744 0.121176 9.34187 0.281344 9.06322 0.559999L0.858553 8.76471L0.4375 9.18572V21.2812H8.34375V13.7343H12.6562V21.2812H20.5625V9.15036L20.0983 8.72325ZM10.1423 1.55017C10.155 1.55017 10.1472 1.55291 10.1417 1.55825C10.1361 1.55291 10.1297 1.55017 10.1423 1.55017ZM19.125 19.8437H14.0938V13.7343C14.0938 13.353 13.9423 12.9874 13.6727 12.7178C13.4031 12.4482 13.0375 12.2968 12.6562 12.2968H8.34375C7.9625 12.2968 7.59687 12.4482 7.32728 12.7178C7.0577 12.9874 6.90625 13.353 6.90625 13.7343V19.8437H1.875V9.78116L10.1423 1.57645L10.1434 1.57487L19.125 9.78116V19.8437Z"/>
</mask>
<path d="M20.0983 8.72325L11.1773 0.515975C10.8873 0.249163 10.5054 0.104768 10.1114 0.112972C9.71744 0.121176 9.34187 0.281344 9.06322 0.559999L0.858553 8.76471L0.4375 9.18572V21.2812H8.34375V13.7343H12.6562V21.2812H20.5625V9.15036L20.0983 8.72325ZM10.1423 1.55017C10.155 1.55017 10.1472 1.55291 10.1417 1.55825C10.1361 1.55291 10.1297 1.55017 10.1423 1.55017ZM19.125 19.8437H14.0938V13.7343C14.0938 13.353 13.9423 12.9874 13.6727 12.7178C13.4031 12.4482 13.0375 12.2968 12.6562 12.2968H8.34375C7.9625 12.2968 7.59687 12.4482 7.32728 12.7178C7.0577 12.9874 6.90625 13.353 6.90625 13.7343V19.8437H1.875V9.78116L10.1423 1.57645L10.1434 1.57487L19.125 9.78116V19.8437Z" fill="#023047"/>
<path d="M20.0983 8.72325L22.1295 6.51553L22.1294 6.51545L20.0983 8.72325ZM11.1773 0.515975L9.14614 2.72375L9.14616 2.72377L11.1773 0.515975ZM9.06322 0.559999L11.1845 2.68131L11.1846 2.6813L9.06322 0.559999ZM0.858553 8.76471L2.97976 10.8861L2.97988 10.886L0.858553 8.76471ZM0.4375 9.18572L-1.68371 7.06428L-2.5625 7.94298V9.18572H0.4375ZM0.4375 21.2812H-2.5625V24.2812H0.4375V21.2812ZM8.34375 21.2812V24.2812H11.3438V21.2812H8.34375ZM8.34375 13.7343V10.7343H5.34375V13.7343H8.34375ZM12.6562 13.7343H15.6562V10.7343H12.6562V13.7343ZM12.6562 21.2812H9.65625V24.2812H12.6562V21.2812ZM20.5625 21.2812V24.2812H23.5625V21.2812H20.5625ZM20.5625 9.15036H23.5625V7.83396L22.5937 6.94264L20.5625 9.15036ZM10.1417 1.55825L8.07322 3.73108L10.1757 5.73261L12.2453 3.69718L10.1417 1.55825ZM19.125 19.8437V22.8437H22.125V19.8437H19.125ZM14.0938 19.8437H11.0938V22.8437H14.0938V19.8437ZM6.90625 19.8437V22.8437H9.90625V19.8437H6.90625ZM1.875 19.8437H-1.125V22.8437H1.875V19.8437ZM1.875 9.78116L-0.238241 7.65179L-1.125 8.53183V9.78116H1.875ZM10.1423 1.57645L12.2556 3.70582L12.4567 3.50624L12.6169 3.27254L10.1423 1.57645ZM10.1434 1.57487L12.167 -0.639883L9.61966 -2.96732L7.66888 -0.121216L10.1434 1.57487ZM19.125 9.78116H22.125V8.45854L21.1486 7.5664L19.125 9.78116ZM22.1294 6.51545L13.2085 -1.69182L9.14616 2.72377L18.0671 10.931L22.1294 6.51545ZM13.2085 -1.6918C12.3489 -2.48268 11.2168 -2.9107 10.049 -2.88638L10.1739 3.11232C9.794 3.12023 9.42576 2.98101 9.14614 2.72375L13.2085 -1.6918ZM10.049 -2.88638C8.88111 -2.86206 7.76785 -2.38729 6.94188 -1.5613L11.1846 2.6813C10.9159 2.94998 10.5538 3.10441 10.1739 3.11232L10.049 -2.88638ZM6.94189 -1.56132L-1.26277 6.6434L2.97988 10.886L11.1845 2.68131L6.94189 -1.56132ZM-1.26265 6.64328L-1.68371 7.06428L2.55871 11.3072L2.97976 10.8861L-1.26265 6.64328ZM-2.5625 9.18572V21.2812H3.4375V9.18572H-2.5625ZM0.4375 24.2812H8.34375V18.2812H0.4375V24.2812ZM11.3438 21.2812V13.7343H5.34375V21.2812H11.3438ZM8.34375 16.7343H12.6562V10.7343H8.34375V16.7343ZM9.65625 13.7343V21.2812H15.6562V13.7343H9.65625ZM12.6562 24.2812H20.5625V18.2812H12.6562V24.2812ZM23.5625 21.2812V9.15036H17.5625V21.2812H23.5625ZM22.5937 6.94264L22.1295 6.51553L18.067 10.931L18.5313 11.3581L22.5937 6.94264ZM10.1423 4.55017C10.1003 4.55017 10.0067 4.54943 9.88791 4.53916C9.81166 4.53257 9.51081 4.50715 9.14907 4.37936C8.93066 4.3022 7.63355 3.82569 7.24237 2.29337C6.874 0.850403 7.68241 -0.162874 7.77878 -0.287055C7.98247 -0.549529 8.18593 -0.716698 8.21554 -0.741631C8.27042 -0.787836 8.32276 -0.827813 8.30627 -0.815014C8.3061 -0.814882 8.30344 -0.81282 8.3002 -0.810294C8.29676 -0.807608 8.2916 -0.803572 8.28536 -0.798647C8.27306 -0.788931 8.25437 -0.774016 8.23192 -0.755449C8.18869 -0.719694 8.11888 -0.660044 8.03818 -0.580671L12.2453 3.69718C12.166 3.77521 12.0976 3.83361 12.0558 3.86819C12.034 3.88617 12.0161 3.90052 12.0044 3.90969C11.9986 3.91434 11.9937 3.91811 11.9906 3.92053C11.9891 3.92176 11.9878 3.92276 11.9869 3.9234C11.9865 3.92373 11.9862 3.92399 11.986 3.92417C11.9857 3.92434 11.9856 3.92447 11.9856 3.92448C11.9704 3.93627 12.0239 3.89537 12.0798 3.84832C12.1104 3.82254 12.3147 3.65462 12.5189 3.39146C12.6158 3.26661 13.4244 2.25274 13.0559 0.809258C12.6646 -0.723564 11.367 -1.20051 11.1476 -1.27801C10.7849 -1.40613 10.4826 -1.43181 10.4044 -1.43857C10.2836 -1.44901 10.1876 -1.44983 10.1423 -1.44983V4.55017ZM12.2103 -0.614575C12.1216 -0.698957 12.0075 -0.792702 12.0698 -0.740265C12.0752 -0.735711 12.149 -0.674421 12.2351 -0.590044C12.2861 -0.540188 12.5504 -0.286311 12.7711 0.119719C13 0.540999 13.4722 1.71685 12.76 3.00391C12.1804 4.05116 11.2239 4.35371 11.0325 4.41364C10.724 4.51021 10.4715 4.53294 10.3876 4.53993C10.2751 4.5493 10.1862 4.55017 10.1423 4.55017V-1.44983C10.0953 -1.44983 10.0038 -1.44888 9.88933 -1.43934C9.80331 -1.43218 9.54928 -1.40919 9.23974 -1.31228C9.04724 -1.25201 8.09005 -0.949041 7.51022 0.09872C6.79769 1.38629 7.26997 2.56273 7.49928 2.98469C7.72031 3.3914 7.98533 3.64603 8.0371 3.69673C8.12413 3.78195 8.19899 3.84417 8.2056 3.84973C8.27028 3.90419 8.15904 3.81279 8.07322 3.73108L12.2103 -0.614575ZM19.125 16.8437H14.0938V22.8437H19.125V16.8437ZM17.0938 19.8437V13.7343H11.0938V19.8437H17.0938ZM17.0938 13.7343C17.0938 12.5574 16.6262 11.4287 15.794 10.5965L11.5514 14.8391C11.2584 14.5461 11.0938 14.1487 11.0938 13.7343H17.0938ZM15.794 10.5965C14.9618 9.76431 13.8332 9.29678 12.6562 9.29678V15.2968C12.2418 15.2968 11.8444 15.1322 11.5514 14.8391L15.794 10.5965ZM12.6562 9.29678H8.34375V15.2968H12.6562V9.29678ZM8.34375 9.29678C7.16685 9.29678 6.03815 9.76431 5.20596 10.5965L9.4486 14.8391C9.15558 15.1322 8.75816 15.2968 8.34375 15.2968V9.29678ZM5.20596 10.5965C4.37377 11.4287 3.90625 12.5574 3.90625 13.7343H9.90625C9.90625 14.1487 9.74163 14.5461 9.4486 14.8391L5.20596 10.5965ZM3.90625 13.7343V19.8437H9.90625V13.7343H3.90625ZM6.90625 16.8437H1.875V22.8437H6.90625V16.8437ZM4.875 19.8437V9.78116H-1.125V19.8437H4.875ZM3.98824 11.9105L12.2556 3.70582L8.02909 -0.552924L-0.238241 7.65179L3.98824 11.9105ZM12.6169 3.27254L12.6179 3.27096L7.66888 -0.121216L7.66781 -0.119643L12.6169 3.27254ZM8.11983 3.78963L17.1014 11.9959L21.1486 7.5664L12.167 -0.639883L8.11983 3.78963ZM16.125 9.78116V19.8437H22.125V9.78116H16.125Z" fill="#023047" mask="url(#path-1-inside-1_504:1987)"/>
</svg>
